<svg height="73" width="73" xmlns="http://www.w3.org/2000/svg"><mask id="a" fill="#fff"><rect fill-rule="evenodd" height="69" rx="14" width="69" x="5"/></mask><g fill="none" fill-rule="evenodd" transform="translate(-3 2)"><rect fill="#304ffe" fill-rule="nonzero" height="71" rx="14" stroke="#000" stroke-width="2" width="71" x="4" y="-1"/><rect height="71" rx="14" stroke="#000" stroke-width="2" width="71" x="4" y="-1"/><g mask="url(#a)"><g fill-rule="nonzero" transform="translate(0 10)"><path d="M36.633 5.59h8.855v8.193h-8.855z" fill="#ffd54f"/><path d="M36.633 5.59h3.126v8.193h-3.126z" fill="#fff176"/><ellipse cx="39.693" cy="7.641" fill="#fff176" rx="2.071" ry="2.598"/><path d="M36.416 4.665a4.576 4.576 0 1 1 9.15 0" fill="#f4511e"/><path d="M41.029.09a4.54 4.54 0 0 1 4.537 4.575h-4.537z" fill="#e64a19"/><rect fill="#f4511e" height="1.18" rx=".59" width="10.922" x="35.53" y="4.518"/><path d="m35.361 39.037 1.277-25.31h8.855l1.14 24.058z" fill="#c5cae9"/><g fill="#ff7043"><path d="m45.615 15.682.5 6.698M36.306 20.02l-.357 7.025 10.006-4.665-.34-6.698zM46.291 28.98l.5 6.699M35.596 33.965l-.357 7.024 11.394-5.31-.343-6.699z"/></g><path d="M35.278 10.01h11.427v3.738h-11.43z" fill="#e64a19"/><path d="M35.278 10.01h7.49v3.738h-7.49z" fill="#f4511e"/><path d="M40.912 10.01c0 1.356-1.263 2.452-2.818 2.452s-2.818-1.098-2.818-2.453" fill="#ffe082" opacity=".5"/><path d="M55.386 8.955c.3 0 .597.066.869.193a3.6 3.6 0 0 1 6.961-.94h.013a2.427 2.427 0 0 1 0 4.854h-7.843a2.053 2.053 0 1 1 0-4.106z" fill="#2979ff"/><path d="M32.111 28.525c.253 0 .502.055.73.162a3.05 3.05 0 0 1 5.901-.797h.01a2.056 2.056 0 0 1 0 4.113H32.11a1.74 1.74 0 1 1 0-3.48z" fill="#448aff"/><g transform="translate(11.787 4.516)"><circle cx="37.352" cy=".44" fill="#fdd835" r="1"/><circle cx="40.587" cy="21.148" fill="#fff9c4" r="1"/><circle cx="1.823" cy="15.3" fill="#fff9c4" r="1"/><circle cx="12.255" cy="26.428" fill="#fff9c4" r="1"/><circle cx="37.833" cy="10.922" fill="#fff9c4" r="1"/><circle cx="51.313" cy="27.402" fill="#fff9c4" r="1"/><g fill="#fdd835"><circle cx=".446" cy="29.788" r="1"/><circle cx="3.844" cy="22.345" r="1"/><circle cx="6.131" cy="20.427" r="1"/><circle cx="15.797" cy="11.794" r="1"/><circle cx="46.328" cy="12.861" r="1"/><circle cx="60.807" cy="28.248" r="1"/><circle cx="9.673" cy="10.687" r="1"/><circle cx="42.26" cy="28.41" r="1"/><circle cx="53.425" cy="19.178" r="1"/></g></g><path d="M36.783 5.466 1.858.477a.381.381 0 0 0-.105-.014C.85.463.083 3.793.083 7.89c0 4.096.766 7.416 1.67 7.416a.382.382 0 0 0 .098-.013l34.927-4.998v-4.83z" fill="#ffe082" opacity=".5"/><path d="M45.827 13.727h-4.478v22.91l5.389 2.4z" fill="#304ffe" opacity=".5"/></g></g><g fill-rule="nonzero"><path d="M4.832 60.075c10.31-9.953 22.476-14.93 36.498-14.93S67.242 51.093 77 62.986l-5.87 14.012-63.897-1.61z" fill="#00c853" mask="url(#a)"/><path d="M75.066 51.299c-3.128-2.86-6.255-4.289-9.383-4.289-3.128 0-6.256 1.43-9.383 4.289-3.128-2.86-6.256-4.289-9.384-4.289-3.127 0-6.255 1.43-9.383 4.289-3.128-2.86-6.255-4.289-9.383-4.289s-6.256 1.43-9.383 4.289c-2.865-3.005-5.992-4.434-9.384-4.289-3.391.146-6.519 1.844-9.383 5.094v27.969l78.67-3.175V50.26z" fill="#fff" mask="url(#a)"/></g></g></svg>