<svg viewBox="0 0 14 14" xmlns="http://www.w3.org/2000/svg"><path d="m3.5124606 13h1.4946597v-3.1398c-.3399106.041-.686298.063-1.0381658.063-.1527044 0-.304786-.01-.4564939-.014zm-.7473299-3.1658c-.5075615-.074-1.0074006-.1933-1.4946597-.3605v3.5263h1.4946597zm7.4732983 3.1658h1.49466v-9.0799h-.03774c-.234537 1.1588-.743593 2.2077-1.45692 3.0937zm-4.4839789 0h1.4946597v-3.739c-.4749281.2025-.9748918.3621-1.4946597.4735zm3.7366489-5.1841c-.448896.415-.950977.7766-1.494659 1.079v4.1051h1.494659zm3.23843-4.2695-1.460034-1.2732-1.460033-1.2732-1.460034 1.2732-1.4600329 1.2732h1.5977909c-.538077 3.3046-3.5912933 5.8753-7.0658789 5.3286-.152829-.024-.2147328.1818-.06452.234 4.3240505 1.5049 9.3056269-.9678 10.0261779-5.5626z"/></svg>